<svg xmlns="http://www.w3.org/2000/svg" width="720" height="520" viewBox="0 0 720 520" role="img" aria-labelledby="title desc">
  <title id="title">MLOps pipeline illustration</title>
  <desc id="desc">Connected cards representing code, machine learning, cloud infrastructure, analytics, and deployment.</desc>
  <defs>
    <linearGradient id="bg" x1="0" y1="0" x2="1" y2="1">
      <stop offset="0" stop-color="#12223b"/>
      <stop offset="1" stop-color="#07111f"/>
    </linearGradient>
    <linearGradient id="accent" x1="0" y1="0" x2="1" y2="1">
      <stop offset="0" stop-color="#38bdf8"/>
      <stop offset="1" stop-color="#2dd4bf"/>
    </linearGradient>
    <filter id="glow" x="-50%" y="-50%" width="200%" height="200%">
      <feGaussianBlur stdDeviation="14"/>
    </filter>
  </defs>
  <rect width="720" height="520" rx="36" fill="url(#bg)"/>
  <circle cx="586" cy="82" r="70" fill="#38bdf8" opacity=".11" filter="url(#glow)"/>
  <circle cx="116" cy="424" r="84" fill="#2dd4bf" opacity=".09" filter="url(#glow)"/>
  <g fill="none" stroke="#334b68" stroke-width="3" stroke-linecap="round" stroke-dasharray="7 10">
    <path d="M202 161C266 161 266 260 328 260"/>
    <path d="M202 362C266 362 266 260 328 260"/>
    <path d="M470 260C520 260 520 161 563 161"/>
    <path d="M470 260C520 260 520 362 563 362"/>
  </g>
  <g fill="#38bdf8">
    <circle cx="258" cy="196" r="5"/><circle cx="258" cy="328" r="5"/>
    <circle cx="514" cy="211" r="5"/><circle cx="514" cy="311" r="5"/>
  </g>
  <g>
    <rect x="54" y="104" width="148" height="114" rx="20" fill="#101e33" stroke="#2c4663"/>
    <rect x="54" y="305" width="148" height="114" rx="20" fill="#101e33" stroke="#2c4663"/>
    <rect x="302" y="190" width="168" height="140" rx="26" fill="#10263a" stroke="#38bdf8" stroke-width="2"/>
    <rect x="550" y="104" width="116" height="114" rx="20" fill="#101e33" stroke="#2c4663"/>
    <rect x="550" y="305" width="116" height="114" rx="20" fill="#101e33" stroke="#2c4663"/>
  </g>
  <g fill="none" stroke="url(#accent)" stroke-width="6" stroke-linecap="round" stroke-linejoin="round">
    <path d="M91 151l-15 12 15 12M123 139l-14 48M141 151l15 12-15 12"/>
    <path d="M84 374h14l10-23 17 41 12-27 9 9h20"/>
    <path d="M350 268l24 18 48-52"/>
    <path d="M579 169h58M588 153h40M594 185h28"/>
    <path d="M584 382l13-19 15 10 20-29"/>
  </g>
  <g fill="#d8e7f7" font-family="Inter, Arial, sans-serif" text-anchor="middle">
    <text x="128" y="199" font-size="15" font-weight="600">CODE</text>
    <text x="128" y="399" font-size="15" font-weight="600">OBSERVE</text>
    <text x="386" y="308" font-size="17" font-weight="700">SHIP WITH CONFIDENCE</text>
    <text x="608" y="199" font-size="15" font-weight="600">CLOUD</text>
    <text x="608" y="399" font-size="15" font-weight="600">LEARN</text>
  </g>
  <rect x="322" y="210" width="54" height="24" rx="12" fill="#38bdf8" opacity=".16"/>
  <text x="349" y="227" fill="#7dd3fc" font-family="Inter, Arial, sans-serif" font-size="11" font-weight="700" text-anchor="middle">MLOPS</text>
</svg>
